HIERARCHY
ROOT root
{
	OFFSET 0.000000 0.000000 0.000000
	CHANNELS 6 Xposition Yposition Zposition Zrotation Yrotation Xrotation
	JOINT lhip
	{
		OFFSET 0.058581 -0.082280 -0.017664
		CHANNELS 3 Zrotation Yrotation Xrotation
		JOINT lknee
		{
			OFFSET 0.043451 -0.386469 0.008037
			CHANNELS 3 Zrotation Yrotation Xrotation
			JOINT lankle
			{
				OFFSET -0.014790 -0.426874 -0.037428
				CHANNELS 3 Zrotation Yrotation Xrotation
				JOINT ltoe
				{
					OFFSET 0.041054 -0.060286 0.122042
					CHANNELS 3 Zrotation Yrotation Xrotation
					End Site
					{
						OFFSET 0.000000 0.000000 0.000000
					}
				}
			}
		}
	}
	JOINT rhip
	{
		OFFSET -0.060310 -0.090513 -0.013543
		CHANNELS 3 Zrotation Yrotation Xrotation
		JOINT rknee
		{
			OFFSET -0.043257 -0.383688 -0.004843
			CHANNELS 3 Zrotation Yrotation Xrotation
			JOINT rankle
			{
				OFFSET 0.019056 -0.420046 -0.034562
				CHANNELS 3 Zrotation Yrotation Xrotation
				JOINT rtoe
				{
					OFFSET -0.034840 -0.062106 0.130323
					CHANNELS 3 Zrotation Yrotation Xrotation
					End Site
					{
						OFFSET 0.000000 0.000000 0.000000
					}
				}
			}
		}
	}
	JOINT lowerback
	{
		OFFSET 0.004439 0.124404 -0.038385
		CHANNELS 3 Zrotation Yrotation Xrotation
		JOINT upperback
		{
			OFFSET 0.004488 0.137956 0.026820
			CHANNELS 3 Zrotation Yrotation Xrotation
			JOINT chest
			{
				OFFSET -0.002265 0.056032 0.002855
				CHANNELS 3 Zrotation Yrotation Xrotation
				JOINT lowerneck
				{
					OFFSET -0.013390 0.211636 -0.033468
					CHANNELS 3 Zrotation Yrotation Xrotation
					JOINT upperneck
					{
						OFFSET 0.010113 0.088937 0.050410
						CHANNELS 3 Zrotation Yrotation Xrotation
						End Site
						{
							OFFSET 0.000000 0.000000 0.000000
						}
					}
				}
				JOINT lclavicle
				{
					OFFSET 0.071702 0.114000 -0.018898
					CHANNELS 3 Zrotation Yrotation Xrotation
					JOINT lshoulder
					{
						OFFSET 0.122921 0.045205 -0.019046
						CHANNELS 3 Zrotation Yrotation Xrotation
						JOINT lelbow
						{
							OFFSET 0.255332 -0.015649 -0.022946
							CHANNELS 3 Zrotation Yrotation Xrotation
							JOINT lwrist
							{
								OFFSET 0.265709 0.012698 -0.007375
								CHANNELS 3 Zrotation Yrotation Xrotation
								End Site
								{
									OFFSET 0.000000 0.000000 0.000000
								}
							}
						}
					}
				}
				JOINT rclavicle
				{
					OFFSET -0.082954 0.112472 -0.023707
					CHANNELS 3 Zrotation Yrotation Xrotation
					JOINT rshoulder
					{
						OFFSET -0.113228 0.046853 -0.008472
						CHANNELS 3 Zrotation Yrotation Xrotation
						JOINT relbow
						{
							OFFSET -0.260127 -0.014369 -0.031269
							CHANNELS 3 Zrotation Yrotation Xrotation
							JOINT rwrist
							{
								OFFSET -0.269108 0.006794 -0.006027
								CHANNELS 3 Zrotation Yrotation Xrotation
								End Site
								{
									OFFSET 0.000000 0.000000 0.000000
								}
							}
						}
					}
				}
			}
		}
	}
}
MOTION
Frames: 11
Frame Time: 0.033333
-0.889532 1.160323 0.911232 -4.367847 6.906892 96.117378 1.594828 0.108796 -10.865557 -4.629476 10.083211 82.901239 2.424602 17.354759 -14.873064 0.000000 -0.000000 0.000000 -3.937590 1.445765 -35.025851 4.281808 -8.809626 52.428974 -3.194242 -11.724181 -22.383904 0.000000 -0.000000 0.000000 10.311824 -7.332228 15.264280 0.681831 -1.689723 6.755913 -2.856009 1.320363 -5.967770 -17.543228 6.718125 -4.527292 -6.644631 20.176412 -2.693624 -35.880236 0.179526 0.150238 -35.672438 2.938062 18.043691 -10.267913 -54.584359 12.240433 -4.292845 -8.700902 2.958245 27.962448 2.708713 4.366350 23.345452 -5.573058 6.483734 12.208507 56.022351 3.755661 14.843268 12.685067 -2.021919 
-0.887513 1.091182 0.918164 -4.991380 5.822009 95.485576 2.961891 0.172447 -22.332640 -3.717489 13.157629 86.582419 3.920665 16.871632 -16.563369 0.000000 -0.000000 0.000000 -3.988704 0.334257 -27.546791 3.576509 -5.964246 50.018775 -2.636919 -11.752576 -24.621730 0.000000 -0.000000 0.000000 8.943920 -3.085286 15.877673 -0.093662 -1.320748 6.583479 -2.868561 2.205323 -6.409503 -15.977200 5.476867 -3.169189 -5.670935 19.675293 -1.547565 -35.707478 2.040636 1.294981 -33.599678 6.078085 17.942284 -14.374724 -52.986406 16.874406 -6.467682 -8.106194 2.022134 27.364116 3.007295 4.378618 24.831876 -3.015375 5.379596 10.466149 58.137198 4.068494 13.505403 11.803193 -1.837980 
-0.881079 1.016449 0.937032 -4.966544 4.864453 95.849110 3.898418 0.660254 -31.715444 -2.826747 15.206077 80.691325 4.259017 17.189605 -18.284943 0.000000 -0.000000 0.000000 -4.735666 -1.576398 -18.295422 3.457749 -2.854366 42.429548 -0.491878 -10.317815 -23.783586 0.000000 -0.000000 0.000000 7.699128 1.509170 14.333435 -0.685939 -1.429027 6.767373 -2.943230 2.880514 -6.035509 -14.284661 4.676219 -2.724726 -5.426110 17.812689 -0.574179 -34.539188 4.337362 1.602981 -30.614554 9.483423 18.781694 -22.794335 -54.570850 27.533259 -9.690495 -10.107721 0.482127 26.856285 2.372196 3.621044 26.011665 -2.290202 4.459704 12.238786 61.830815 4.603722 13.250619 12.178151 -5.252525 
-0.871121 0.936302 0.961937 -4.974865 3.803504 96.743801 4.370113 1.063463 -36.807388 -3.013405 17.389138 65.895450 4.702334 16.483522 -17.336854 0.000000 -0.000000 0.000000 -6.756953 -3.613701 -9.140939 2.926527 0.207051 33.162804 3.236423 -6.774628 -16.631635 0.000000 -0.000000 0.000000 5.417491 6.318259 11.403533 -0.633043 -1.136563 7.257028 -2.678046 3.098905 -5.760361 -12.859674 4.769580 -2.115593 -5.018785 15.268871 1.125826 -32.033956 6.609605 1.755646 -29.170821 12.503533 20.563622 -30.940113 -55.742314 38.610537 -12.011846 -12.311099 -1.592849 26.069433 0.806312 3.029816 27.689470 -2.704124 5.405077 14.119166 65.461976 5.171640 11.402276 14.081662 -11.122704 
-0.858471 0.852590 0.987154 -4.901084 3.538094 97.551188 4.814381 1.030962 -37.187185 -5.690484 17.800205 44.015671 4.720942 16.479709 -14.014326 0.000000 -0.000000 0.000000 -9.281863 -4.613102 -1.411399 2.622646 0.712337 25.238759 7.831049 -3.222128 -3.653953 0.000000 -0.000000 0.000000 3.277808 10.021739 8.178244 -0.198596 -0.093695 7.216447 -2.229592 3.401786 -5.037188 -11.574138 5.397497 -0.587161 -5.343295 12.297294 1.648851 -28.577244 8.424015 2.452996 -29.559726 15.009287 21.917113 -37.595095 -56.446561 46.617480 -13.350681 -14.819647 -4.740527 24.903588 -0.515498 2.914159 29.747324 -4.037133 5.833828 16.802381 68.537001 6.897599 10.990005 15.601284 -14.780987 
-0.844461 0.767146 1.005899 -5.406334 4.410636 98.492376 4.869397 2.112847 -34.803804 -7.121280 15.924227 20.872798 3.715037 16.566297 -6.482110 0.000000 -0.000000 0.000000 -11.754196 -6.678283 3.970175 2.425630 -1.585896 19.836625 12.104308 -0.548195 10.976386 0.000000 -0.000000 0.000000 2.123149 12.564996 2.882677 0.194192 1.376433 9.242916 -2.111260 3.871581 -4.669018 -10.054596 7.011792 2.152809 -5.828735 8.823757 0.220702 -24.286251 9.682325 3.680572 -31.050545 17.194871 21.710104 -44.053590 -56.431005 54.035251 -14.686759 -16.710271 -5.733367 23.588230 -1.080523 3.909537 32.111141 -5.021616 4.993590 21.514057 69.933192 11.162209 12.881743 16.466446 -14.904738 
-0.829260 0.683977 1.014817 -5.164933 6.228960 99.281016 4.217060 4.943386 -33.391861 -6.565424 15.697511 5.725548 1.826417 14.184360 -1.028824 0.000000 -0.000000 0.000000 -11.834845 -8.208743 6.356802 0.600596 -3.302042 20.400922 13.980791 -1.429826 19.087274 0.000000 -0.000000 0.000000 2.495452 13.505836 -2.809527 0.510952 2.499892 12.293962 -2.258652 4.319513 -4.336721 -7.899962 9.262382 3.987397 -6.541265 5.516021 0.189795 -20.660700 10.443815 4.395340 -31.932584 18.870803 20.888156 -50.345017 -56.555697 62.267213 -17.896452 -18.564918 -4.094038 22.428182 -1.488381 5.461978 34.320092 -4.550188 3.927973 24.538075 69.390157 14.546570 14.499429 17.329721 -14.579377 
-0.812682 0.605263 1.012517 -4.440599 6.663931 99.524582 2.471361 6.163928 -33.450145 -5.530200 17.898589 0.868842 2.686788 15.485968 2.084306 0.000000 -0.000000 0.000000 -12.268191 -7.643385 4.696584 -2.451108 -4.598547 30.050849 12.524852 -5.359292 17.935731 0.000000 -0.000000 0.000000 1.386318 13.403573 -6.041603 0.880080 3.248402 13.981161 -2.204051 4.583096 -4.418555 -6.166683 9.998485 4.140244 -6.416268 4.590980 2.376487 -18.643356 11.138720 3.696624 -30.540885 19.766619 21.198803 -56.367466 -57.164514 70.936806 -19.864335 -20.069330 -3.653755 22.438714 -1.869440 5.570025 35.298209 -4.175482 5.822360 22.319562 68.133920 13.538178 14.031106 18.012701 -16.480603 
-0.795700 0.525393 1.000703 -2.758285 6.765682 98.324223 2.331208 4.970627 -32.084024 -5.748537 18.634171 4.506552 5.377198 15.727913 2.248949 0.000000 -0.000000 0.000000 -12.724544 -6.310998 3.962311 -4.194744 -4.581439 40.482692 10.504705 -7.797677 13.764103 0.000000 -0.000000 0.000000 0.002277 12.890411 -6.373853 1.873226 2.943526 14.853325 -1.948986 4.405659 -5.323790 -4.881806 11.290648 5.973406 -6.632994 3.477123 2.269062 -16.648111 12.346127 2.507935 -30.684077 18.303188 21.269418 -57.448987 -56.507747 72.393979 -21.416283 -20.290045 -2.759080 22.836697 -2.437263 5.223218 35.675180 -3.984628 8.342257 17.571627 66.060314 9.566894 14.440797 17.603977 -16.570482 
-0.779496 0.447525 0.980179 -0.010849 6.302347 96.471889 2.088396 3.303121 -31.297238 -6.806278 18.394035 16.329857 11.542661 18.233137 -9.455736 0.000000 -0.000000 0.000000 -13.269075 -4.857061 2.670189 -5.203011 -4.532877 52.263776 10.362302 -9.447772 9.381673 0.000000 -0.000000 0.000000 -1.853173 11.628901 -4.551228 2.581128 1.931561 14.281945 -1.228790 4.512014 -5.445861 -4.802251 10.390227 6.545200 -6.571443 4.905526 1.698166 -16.467136 11.539884 2.619209 -31.716925 16.539084 21.079700 -52.631788 -58.502174 67.301703 -20.043595 -19.603249 -1.803805 22.906839 -1.828820 3.693093 36.688949 -5.632806 10.182968 13.267502 64.191520 6.979927 12.852341 16.772550 -17.368557 
-0.763376 0.373935 0.956614 3.919231 5.138529 94.462952 1.452674 1.895630 -31.565225 -7.940849 16.744321 30.700681 13.763410 21.041216 -18.244016 0.000000 -0.000000 0.000000 -13.966668 -4.235614 -0.198492 -4.716096 -3.959930 64.696562 8.861558 -11.338673 6.609776 0.000000 -0.000000 0.000000 -3.496459 10.243265 -0.465507 2.805232 0.668473 13.622188 -1.305760 3.444231 -6.590541 -4.149091 9.771980 4.974288 -6.631896 6.848463 2.744216 -19.258097 9.595304 2.516437 -29.409322 14.866624 19.868590 -47.370475 -61.240332 60.571412 -16.212369 -18.836925 -1.367221 25.269542 -1.025506 2.198063 35.903015 -7.851648 11.854192 9.655526 62.747531 5.350090 11.047105 16.132627 -18.882770 
